<svg width="45" height="45" viewBox="0 0 45 45" fill="none" xmlns="http://www.w3.org/2000/svg">
<path d="M25.7958 17.016C18.6725 24.7435 10.8204 29.0733 8.25758 26.6867C10.8204 29.0733 7.12331 37.2724 0 45C7.12331 37.2724 14.9754 32.9427 17.5382 35.3292C14.9754 32.9427 18.6725 24.7435 25.7958 17.016Z" fill="#B0EB9A"/>
<path d="M45 0C37.8767 7.72758 30.0246 12.0573 27.4618 9.67077C30.0246 12.0573 26.3275 20.2565 19.2042 27.984C26.3275 20.2565 34.1796 15.9267 36.7424 18.3133C34.1796 15.9267 37.8767 7.72758 45 0Z" fill="#DC6EF2"/>
<path d="M38.2794 28.0736C37.4904 27.6929 37.0225 27.5491 36.374 27.3661C37.7186 28.4703 38.4734 29.0705 39.4245 30.4788C44.6997 15.2647 29.9255 4.56858 18.643 8.84135C27.1659 8.49237 34.9472 13.2179 35.6324 24.5271C36.8376 25.6224 37.4237 26.4041 38.2794 28.0736Z" fill="white"/>
<path d="M22.5572 32.0351C22.8763 27.1775 31.8028 28.4414 35.3602 36.4965C37.0858 34.6329 38.0122 33.5018 39.1711 31.0258C37.0028 27.9604 32.2158 25.9985 28.0388 26.1777L27.1471 27.4793L25.6171 26.6021C27.3161 24.9043 35.21 25.442 37.3595 27.3661C33.3891 22.4331 24.1059 22.1501 23.1579 26.9417C21.4214 28.7715 21.4911 30.5116 22.5572 32.0351Z" fill="white"/>
<path d="M24.472 37.3265C24.7679 39.1441 24.4648 39.9195 23.5709 41.0711C27.2312 41.0711 30.2285 40.2716 33.081 38.3144C32.2317 34.2616 30.9969 32.5661 28.1702 30.0166C29.2027 31.9596 27.1941 36.4776 24.472 37.3265Z" fill="white"/>
<path d="M15.1982 10.4165C7.51078 17.8962 9.27539 32.8274 23.4582 37.2133C23.7706 38.6938 23.6678 39.5808 22.5196 41.0145C3.97209 38.2792 3.87824 16.123 15.1982 10.4165Z" fill="white"/>
</svg>
