<svg width="2800" height="1000" viewBox="0 0 2800 1000" fill="none" xmlns="http://www.w3.org/2000/svg">
<path d="M573.24 378.132C414.944 549.856 240.452 646.073 183.502 593.038C240.452 646.073 158.296 828.276 0 1000C158.296 828.276 332.787 732.059 389.738 785.094C332.787 732.059 414.944 549.856 573.24 378.132Z" fill="#B0EB9A"/>
<path d="M1000 0C841.704 171.724 667.213 267.941 610.262 214.906C667.213 267.941 585.056 450.144 426.76 621.867C585.056 450.144 759.548 353.927 816.498 406.961C759.548 353.927 841.704 171.724 1000 0Z" fill="#DC6EF2"/>
<path d="M850.653 623.857C833.12 615.398 822.722 612.203 808.31 608.136C838.192 632.673 854.965 646.012 876.101 677.305C993.327 339.215 665.011 101.524 414.29 196.475C603.687 188.719 776.605 293.731 791.832 545.046C818.613 569.387 831.638 586.757 850.653 623.857Z" fill="white"/>
<path d="M501.271 711.89C508.363 603.944 706.729 632.031 785.783 811.033C824.13 769.621 844.715 744.484 870.469 689.463C822.286 621.341 715.906 577.744 623.085 581.726L603.27 610.652L569.27 591.158C607.024 553.43 782.445 565.377 830.212 608.136C741.98 498.514 535.687 492.225 514.62 598.704C476.032 639.367 477.579 678.036 501.271 711.89Z" fill="white"/>
<path d="M543.822 829.478C550.397 869.868 543.663 887.1 523.798 912.691C605.138 912.691 671.744 894.925 735.134 851.432C716.26 761.369 688.82 723.691 626.005 667.035C648.95 710.213 604.312 810.614 543.822 829.478Z" fill="white"/>
<path d="M337.739 231.478C166.906 397.694 206.12 729.497 521.294 826.963C528.236 859.863 525.952 879.573 500.436 911.433C88.2687 850.648 86.1832 358.289 337.739 231.478Z" fill="white"/>
<path d="M1286.43 724.475H1052.62L996.023 820.971H898.103L1198.19 313.904H1286.06L1407.44 820.971H1309.15L1286.43 724.475ZM1099.53 644.746H1267.45L1221.65 449.147L1220.91 436.107H1220.16L1214.95 449.147L1099.53 644.746Z" fill="white"/>
<path d="M1806.35 314.277H1899.05L1844.32 624.999C1838.86 655.302 1828.69 683.12 1813.79 708.455C1799.15 733.789 1780.78 755.647 1758.69 774.027C1736.85 792.407 1711.78 806.689 1683.48 816.872C1655.43 827.056 1625.4 832.148 1593.38 832.148C1562.85 832.148 1535.17 827.304 1510.35 817.617C1485.53 807.931 1464.8 794.146 1448.17 776.262C1431.79 758.379 1420.12 736.646 1413.17 711.063C1406.47 685.48 1405.98 656.792 1411.68 624.999L1466.42 314.277H1558.75L1504.02 624.999C1500.79 642.883 1500.55 659.524 1503.28 674.924C1506.01 690.323 1511.59 703.86 1520.03 715.534C1528.47 726.959 1539.76 736.025 1553.91 742.731C1568.31 749.189 1585.56 752.418 1605.66 752.418C1625.02 752.418 1642.9 749.189 1659.28 742.731C1675.91 736.025 1690.43 727.083 1702.84 715.906C1715.5 704.481 1725.92 691.068 1734.12 675.669C1742.31 660.269 1748.02 643.628 1751.24 625.744L1806.35 314.277Z" fill="white"/>
<path d="M1951.33 314.277H2298.33L2284.18 394.752H2029.89L2005.69 530.367H2225.36L2211.21 610.096H1991.91L1968.83 740.868H2226.1L2212.33 820.971H1861.97L1951.33 314.277Z" fill="white"/>
<path d="M2705.43 487.894C2701.71 471.252 2695.38 456.474 2686.44 443.558C2677.51 430.394 2666.71 419.341 2654.05 410.4C2641.39 401.209 2627.12 394.255 2611.23 389.536C2595.35 384.816 2578.72 382.457 2561.34 382.457C2542.73 382.457 2524.48 385.065 2506.61 390.281C2488.74 395.248 2471.74 402.327 2455.6 411.517C2439.72 420.707 2424.95 431.76 2411.3 444.676C2397.64 457.592 2385.85 471.998 2375.92 487.894C2366.24 503.542 2358.55 520.432 2352.84 538.563C2347.38 556.695 2344.65 575.572 2344.65 595.194C2344.65 617.548 2348.37 638.288 2355.82 657.413C2363.27 676.29 2373.69 692.807 2387.09 706.965C2400.5 720.874 2416.51 731.803 2435.12 739.751C2453.74 747.699 2474.09 751.673 2496.18 751.673C2513.56 751.673 2530.93 749.437 2548.31 744.966C2565.68 740.247 2582.32 733.417 2598.2 724.475C2614.09 715.534 2628.73 704.605 2642.14 691.689C2655.54 678.525 2667.08 663.622 2676.76 646.981H2772.08C2758.67 676.786 2741.05 703.239 2719.21 726.338C2697.36 749.189 2673.41 768.438 2647.35 784.086C2621.28 799.734 2593.98 811.656 2565.44 819.853C2536.89 827.801 2509.22 831.775 2482.41 831.775C2448.4 831.775 2417.25 825.938 2388.96 814.264C2360.66 802.591 2336.21 786.57 2315.61 766.203C2295.25 745.587 2279.37 721.37 2267.95 693.552C2256.53 665.733 2250.82 635.804 2250.82 603.763C2250.82 576.441 2254.92 549.989 2263.11 524.406C2271.55 498.823 2283.09 474.854 2297.74 452.5C2312.63 430.146 2330.25 409.779 2350.61 391.398C2370.96 373.018 2393.18 357.246 2417.25 344.082C2441.33 330.67 2466.77 320.362 2493.58 313.159C2520.39 305.956 2547.81 302.354 2575.86 302.354C2593.73 302.354 2611.36 304.093 2628.73 307.57C2646.35 311.048 2663.11 316.264 2678.99 323.218C2695.13 330.173 2710.15 338.866 2724.05 349.298C2737.95 359.482 2750.23 371.528 2760.91 385.437C2771.58 399.098 2780.27 414.498 2786.97 431.636C2793.92 448.774 2798.26 467.651 2800 488.266L2705.43 487.894Z" fill="white"/>
</svg>
