<svg width="900" height="900" viewBox="0 0 900 900" fill="none" xmlns="http://www.w3.org/2000/svg">
<path d="M611.562 300.815C581.914 286.994 549.814 276.963 516.377 271.167C515.79 271.175 515.228 271.415 514.816 271.835C510.804 279.192 506.123 288.777 503.002 296.133C467.537 290.787 431.469 290.787 396.002 296.133C392.881 288.554 388.2 279.192 383.964 271.835C383.741 271.39 383.073 271.167 382.404 271.167C348.967 276.963 317.09 286.994 287.219 300.815C286.996 300.815 286.773 301.038 286.551 301.26C225.917 391.988 209.199 480.263 217.446 567.646C217.446 568.092 217.669 568.538 218.115 568.76C258.24 598.185 296.805 616.019 334.923 627.833C335.592 628.056 336.261 627.833 336.484 627.388C345.401 615.127 353.426 602.198 360.335 588.6C360.781 587.708 360.335 586.817 359.444 586.594C346.738 581.69 334.701 575.894 322.886 569.206C321.994 568.76 321.994 567.423 322.663 566.754C325.115 564.971 327.567 562.965 330.019 561.181C330.465 560.735 331.134 560.735 331.58 560.958C408.262 595.956 490.964 595.956 566.756 560.958C567.202 560.735 567.87 560.735 568.316 561.181C570.768 563.188 573.221 564.971 575.673 566.977C576.564 567.646 576.564 568.983 575.45 569.429C563.858 576.34 551.598 581.913 538.891 586.817C538 587.04 537.777 588.154 538 588.823C545.133 602.421 553.158 615.35 561.852 627.61C562.52 627.833 563.189 628.056 563.858 627.833C602.2 616.019 640.764 598.185 680.889 568.76C681.335 568.538 681.558 568.092 681.558 567.646C691.366 466.665 665.285 379.058 612.454 301.26C612.231 301.038 612.008 300.815 611.562 300.815ZM371.927 514.369C348.967 514.369 329.796 493.192 329.796 467.11C329.796 441.029 348.521 419.852 371.927 419.852C395.556 419.852 414.281 441.252 414.058 467.11C414.058 493.192 395.333 514.369 371.927 514.369ZM527.3 514.369C504.339 514.369 485.168 493.192 485.168 467.11C485.168 441.029 503.893 419.852 527.3 419.852C550.929 419.852 569.654 441.252 569.431 467.11C569.431 493.192 550.929 514.369 527.3 514.369Z" fill="white"/>
</svg>
