<svg width="900" height="900" viewBox="0 0 900 900" fill="none" xmlns="http://www.w3.org/2000/svg">
<path d="M367.386 260.848H521.801C580.627 260.848 628.422 308.749 628.422 367.705V522.462C628.422 550.802 617.188 577.983 597.193 598.022C577.198 618.062 550.079 629.318 521.801 629.318H367.386C308.561 629.318 260.766 581.418 260.766 522.462V367.705C260.766 339.364 271.999 312.185 291.994 292.146C311.989 272.106 339.109 260.848 367.386 260.848ZM363.709 297.695C346.158 297.695 329.325 304.683 316.914 317.121C304.504 329.559 297.531 346.429 297.531 364.02V526.146C297.531 562.809 327.128 592.472 363.709 592.472H525.478C543.03 592.472 559.862 585.484 572.274 573.046C584.684 560.608 591.655 543.737 591.655 526.146V364.02C591.655 327.357 562.06 297.695 525.478 297.695H363.709ZM541.104 325.33C547.198 325.33 553.042 327.757 557.352 332.075C561.662 336.394 564.082 342.252 564.082 348.36C564.082 354.467 561.662 360.325 557.352 364.644C553.042 368.963 547.198 371.389 541.104 371.389C535.01 371.389 529.164 368.963 524.854 364.644C520.546 360.325 518.125 354.467 518.125 348.36C518.125 342.252 520.546 336.394 524.854 332.075C529.164 327.757 535.01 325.33 541.104 325.33ZM444.594 352.966C468.971 352.966 492.349 362.671 509.587 379.946C526.823 397.222 536.508 420.651 536.508 445.083C536.508 469.515 526.823 492.946 509.587 510.22C492.349 527.496 468.971 537.201 444.594 537.201C420.216 537.201 396.838 527.496 379.601 510.22C362.364 492.946 352.68 469.515 352.68 445.083C352.68 420.651 362.364 397.222 379.601 379.946C396.838 362.671 420.216 352.966 444.594 352.966ZM444.594 389.813C429.968 389.813 415.94 395.636 405.598 406.001C395.256 416.367 389.445 430.424 389.445 445.083C389.445 459.742 395.256 473.801 405.598 484.165C415.94 494.532 429.968 500.355 444.594 500.355C459.22 500.355 473.248 494.532 483.59 484.165C493.931 473.801 499.741 459.742 499.741 445.083C499.741 430.424 493.931 416.367 483.59 406.001C473.248 395.636 459.22 389.813 444.594 389.813Z" fill="white"/>
</svg>
