<svg width="23" height="23" viewBox="0 0 23 23" fill="none" xmlns="http://www.w3.org/2000/svg">
<path d="M7.31237 1.875H15.1872C18.1872 1.875 20.6246 4.31245 20.6246 7.3124V15.1872C20.6246 16.6293 20.0517 18.0124 19.032 19.0321C18.0123 20.0518 16.6293 20.6246 15.1872 20.6246H7.31237C4.31242 20.6246 1.87497 18.1872 1.87497 15.1872V7.3124C1.87497 5.87031 2.44784 4.48729 3.46755 3.46758C4.48726 2.44787 5.87028 1.875 7.31237 1.875ZM7.12487 3.74996C6.22978 3.74996 5.37135 4.10554 4.73843 4.73846C4.10551 5.37138 3.74993 6.22981 3.74993 7.1249V15.3747C3.74993 17.2403 5.25928 18.7497 7.12487 18.7497H15.3747C16.2698 18.7497 17.1282 18.3941 17.7612 17.7612C18.3941 17.1283 18.7496 16.2698 18.7496 15.3747V7.1249C18.7496 5.25931 17.2403 3.74996 15.3747 3.74996H7.12487ZM16.1716 5.15619C16.4824 5.15619 16.7804 5.27965 17.0002 5.49941C17.22 5.71918 17.3434 6.01725 17.3434 6.32804C17.3434 6.63883 17.22 6.9369 17.0002 7.15666C16.7804 7.37643 16.4824 7.49989 16.1716 7.49989C15.8608 7.49989 15.5627 7.37643 15.3429 7.15666C15.1232 6.9369 14.9997 6.63883 14.9997 6.32804C14.9997 6.01725 15.1232 5.71918 15.3429 5.49941C15.5627 5.27965 15.8608 5.15619 16.1716 5.15619ZM11.2498 6.56241C12.493 6.56241 13.6852 7.05626 14.5643 7.93532C15.4433 8.81438 15.9372 10.0066 15.9372 11.2498C15.9372 12.493 15.4433 13.6853 14.5643 14.5643C13.6852 15.4434 12.493 15.9372 11.2498 15.9372C10.0066 15.9372 8.81435 15.4434 7.93529 14.5643C7.05623 13.6853 6.56238 12.493 6.56238 11.2498C6.56238 10.0066 7.05623 8.81438 7.93529 7.93532C8.81435 7.05626 10.0066 6.56241 11.2498 6.56241ZM11.2498 8.43737C10.5039 8.43737 9.78853 8.73368 9.26109 9.26112C8.73365 9.78856 8.43734 10.5039 8.43734 11.2498C8.43734 11.9957 8.73365 12.7111 9.26109 13.2385C9.78853 13.766 10.5039 14.0623 11.2498 14.0623C11.9957 14.0623 12.7111 13.766 13.2385 13.2385C13.7659 12.7111 14.0622 11.9957 14.0622 11.2498C14.0622 10.5039 13.7659 9.78856 13.2385 9.26112C12.7111 8.73368 11.9957 8.43737 11.2498 8.43737Z" fill="white"/>
</svg>
