<svg width="900" height="900" viewBox="0 0 900 900" fill="none" xmlns="http://www.w3.org/2000/svg">
<path d="M534.949 312.236C520.83 296.112 513.047 275.408 513.049 253.976H449.212V510.155C448.73 524.02 442.879 537.157 432.896 546.794C422.914 556.428 409.577 561.811 395.703 561.803C366.366 561.803 341.988 537.837 341.988 508.088C341.988 472.553 376.283 445.903 411.61 456.852V391.568C340.335 382.065 277.944 437.432 277.944 508.088C277.944 576.884 334.964 625.846 395.496 625.846C460.367 625.846 513.049 573.166 513.049 508.088V378.14C538.935 396.73 570.014 406.703 601.884 406.65V342.812C601.884 342.812 563.045 344.671 534.949 312.236Z" fill="white"/>
</svg>
