<svg width="25" height="25" viewBox="0 0 25 25" fill="none" xmlns="http://www.w3.org/2000/svg">
<path d="M16.648 5.83669C15.9626 5.05396 15.5848 4.04894 15.5849 3.00854H12.486V15.4444C12.4626 16.1175 12.1786 16.7552 11.694 17.223C11.2094 17.6907 10.562 17.952 9.88849 17.9516C8.46439 17.9516 7.28098 16.7882 7.28098 15.3441C7.28098 13.6191 8.94577 12.3254 10.6607 12.8569V9.68778C7.20075 9.22645 4.17203 11.9142 4.17203 15.3441C4.17203 18.6837 6.94 21.0605 9.87846 21.0605C13.0275 21.0605 15.5849 18.5032 15.5849 15.3441V9.0359C16.8415 9.93835 18.3502 10.4225 19.8973 10.4199V7.32096C19.8973 7.32096 18.0119 7.41122 16.648 5.83669Z" fill="white"/>
</svg>
